# xmcd
# 
# Track frame offsets:
#     150
#     21801
#     39297
#     53912
#     95517
#     109312
#     127474
#     148316
#     161760
#     183704
#     205861
# 
# Disc length: 3047
# 
# Revision: 2
# Processed by: cddbd v1.5.2PL0 Copyright (c) Steve Scherf et al.
# Submitted via: fre:ac v1.0.31
# 
DISCID=a80be50b
DTITLE=Buddy Miller - Universal United House of Prayer
DYEAR=2004
DGENRE=Country
TTITLE0=Worry Too Much
TTITLE1=There's A Higher Power
TTITLE2=Shelter Me
TTITLE3=With God On Our Side
TTITLE4=Wide River to Cross
TTITLE5=Fire and Water
TTITLE6=Don't Wait
TTITLE7=This Old World
TTITLE8=Is That You
TTITLE9=Returning
TTITLE10=Fall on the Rock
EXTD=YEAR: 2004
EXTT0=
EXTT1=
EXTT2=
EXTT3=
EXTT4=
EXTT5=
EXTT6=
EXTT7=
EXTT8=
EXTT9=
EXTT10=
PLAYORDER=
